<?xml version="1.0" encoding="utf-8"?>
<!-- Generator: Adobe Illustrator 23.0.4, SVG Export Plug-In . SVG Version: 6.00 Build 0)  -->
<svg version="1.1" xmlns="http://www.w3.org/2000/svg" xmlns:xlink="http://www.w3.org/1999/xlink" x="0px" y="0px"
	 viewBox="0 0 1800 368" style="enable-background:new 0 0 1800 368;" xml:space="preserve">
<style type="text/css">
	.st0{display:none;}
	.st1{display:inline;fill:url(#SVGID_1_);}
	.st2{display:inline;fill:url(#SVGID_2_);}
	.st3{display:inline;fill:#242E69;}
	.st4{clip-path:url(#SVGID_4_);fill:url(#SVGID_5_);}
	.st5{clip-path:url(#SVGID_4_);}
	.st6{fill:url(#SVGID_6_);}
	.st7{fill:none;}
	.st8{fill:url(#SVGID_7_);}
	.st9{fill:url(#SVGID_8_);}
	.st10{clip-path:url(#SVGID_4_);fill:none;}
	.st11{display:inline;fill:url(#SVGID_9_);}
	.st12{display:inline;fill:url(#SVGID_10_);}
	.st13{display:inline;fill:url(#SVGID_11_);}
	.st14{display:inline;}
	.st15{fill:url(#SVGID_12_);}
	.st16{fill:url(#SVGID_13_);}
	.st17{fill:url(#SVGID_14_);}
	.st18{display:inline;fill:none;}
	.st19{display:inline;fill:url(#SVGID_15_);}
	.st20{display:inline;fill:url(#SVGID_16_);}
	.st21{clip-path:url(#SVGID_18_);fill:url(#SVGID_19_);}
	.st22{clip-path:url(#SVGID_18_);}
	.st23{fill:url(#SVGID_20_);}
	.st24{fill:url(#SVGID_21_);}
	.st25{fill:url(#SVGID_22_);}
	.st26{clip-path:url(#SVGID_18_);fill:none;}
	.st27{display:inline;fill:url(#SVGID_23_);}
	.st28{display:inline;fill:url(#SVGID_24_);}
	.st29{clip-path:url(#SVGID_26_);fill:url(#SVGID_27_);}
	.st30{clip-path:url(#SVGID_26_);}
	.st31{fill:url(#SVGID_28_);}
	.st32{fill:url(#SVGID_29_);}
	.st33{fill:url(#SVGID_30_);}
	.st34{clip-path:url(#SVGID_26_);fill:none;}
	.st35{display:inline;fill:url(#SVGID_31_);}
	.st36{display:inline;fill:url(#SVGID_32_);}
	.st37{clip-path:url(#SVGID_34_);fill:url(#SVGID_35_);}
	.st38{clip-path:url(#SVGID_34_);}
	.st39{fill:url(#SVGID_36_);}
	.st40{fill:url(#SVGID_37_);}
	.st41{fill:url(#SVGID_38_);}
	.st42{clip-path:url(#SVGID_34_);fill:none;}
	.st43{display:inline;fill:url(#SVGID_39_);}
	.st44{display:inline;fill:url(#SVGID_40_);}
	.st45{clip-path:url(#SVGID_42_);fill:url(#SVGID_43_);}
	.st46{clip-path:url(#SVGID_42_);}
	.st47{fill:url(#SVGID_44_);}
	.st48{fill:url(#SVGID_45_);}
	.st49{fill:url(#SVGID_46_);}
	.st50{clip-path:url(#SVGID_42_);fill:none;}
</style>
<g id="Home_1_">
	<g id="Home_original" class="st0">
		<linearGradient id="SVGID_1_" gradientUnits="userSpaceOnUse" x1="343.6459" y1="102.5469" x2="789.5245" y2="264.8334">
			<stop  offset="0" style="stop-color:#2FB2BA"/>
			<stop  offset="1" style="stop-color:#2B90A5"/>
		</linearGradient>
		<path class="st1" d="M248.96,368h434.79c17.08-57.45,39.43-113.68,67.08-167.91C786.8,129.53,831.84,62.19,885.92,0H451.14
			C355.65,109.83,288.26,235.63,248.96,368z"/>
		<linearGradient id="SVGID_2_" gradientUnits="userSpaceOnUse" x1="-25.0021" y1="45.1049" x2="321.4808" y2="237.1635">
			<stop  offset="0" style="stop-color:#24BDC2"/>
			<stop  offset="1" style="stop-color:#2EA5B2"/>
		</linearGradient>
		<path class="st2" d="M450.47,0H0v368h248.96c39.3-132.37,106.69-258.17,202.19-368H450.47z"/>
		<path class="st3" d="M1800,0H885.92c-54.08,62.19-99.11,129.53-135.09,200.09c-27.64,54.23-50,110.46-67.07,167.91H1800V0z"/>
	</g>
	<g>
		<defs>
			<rect id="SVGID_3_" x="-220.1" y="-307" width="2318.1" height="675"/>
		</defs>
		<clipPath id="SVGID_4_">
			<use xlink:href="#SVGID_3_"  style="overflow:visible;"/>
		</clipPath>
		
			<linearGradient id="SVGID_5_" gradientUnits="userSpaceOnUse" x1="1657.8892" y1="-2816.6631" x2="64.2109" y2="-4153.918" gradientTransform="matrix(-1 0 0 -1 1800 -3354.2517)">
			<stop  offset="0.1363" style="stop-color:#242D69"/>
			<stop  offset="1" style="stop-color:#23BDC3"/>
		</linearGradient>
		<polygon class="st4" points="2098,-105.92 -220.1,-105.92 -220.1,368 2098,368 		"/>
		<g class="st5">
			
				<linearGradient id="SVGID_6_" gradientUnits="userSpaceOnUse" x1="740.1948" y1="-1342.1947" x2="2957.7473" y2="-3483.6602" gradientTransform="matrix(-0.7071 0.7071 -0.7071 -0.7071 994.2844 -4105.6841)">
				<stop  offset="0.7483" style="stop-color:#F36F25"/>
				<stop  offset="0.7917" style="stop-color:#F47722"/>
				<stop  offset="0.859" style="stop-color:#F78D19"/>
				<stop  offset="0.9413" style="stop-color:#FBB00C"/>
				<stop  offset="1" style="stop-color:#FFCE00"/>
			</linearGradient>
			<path class="st6" d="M2631.49-1267.71c0,0-0.02-0.19-0.02-0.37c0.11-11.38,0.56-22.93,0.45-34.48
				c-0.06-11.38-0.17-22.93-0.54-34.39c-11.72-458.99-255.56-860.37-618.36-1090.93c-206.44-131.12-451.27-207.07-713.66-207.24
				c-143.84,0.07-282.13,22.83-411.69,65.05c-297.5,96.42-549.33,294.77-713.83,553.88c206.45-131.11,451.18-206.99,713.75-207.16
				c262.74,0,507.39,75.96,713.75,207.16c259.1,164.5,457.35,416.22,553.88,713.83c42.12,129.45,64.94,267.84,64.85,411.49
				c0.11,262.85-75.87,507.47-207.07,713.84l0,0c-230.53,362.83-631.94,606.81-1090.93,618.37
				C1857.88,423.15,2612.92-331.73,2631.49-1267.71z"/>
			<path class="st7" d="M922.6-3046.29c-0.19,0.02-0.45-0.06-0.73-0.17c-11.27-0.18-22.82-0.28-34.2-0.35
				c-11.74,0.09-23.19,0.26-34.48,0.45c-459.08,11.63-860.39,255.36-1091.21,618.3c-131,206.5-206.98,451.14-206.87,713.81
				c-0.02,143.76,22.65,281.95,64.75,411.77c96.55,297.41,294.99,549.16,554,713.75C42.66-795.09-33.21-1039.99-33.21-1302.56
				s75.96-507.22,207.05-713.64c164.5-259.1,416.33-457.46,713.73-553.98c129.67-42.12,267.95-64.88,411.79-64.95
				c262.39,0.18,507.22,76.13,713.66,207.24l0,0c362.81,230.55,606.64,631.94,618.36,1090.93
				C2613.11-2272.68,1858.24-3027.9,922.6-3046.29z"/>
			
				<linearGradient id="SVGID_7_" gradientUnits="userSpaceOnUse" x1="-866.3116" y1="-2115.6729" x2="1415.7679" y2="-1713.2806" gradientTransform="matrix(1 0 0 -1 0 -3354.2517)">
				<stop  offset="0.3861" style="stop-color:#F36F25"/>
				<stop  offset="0.8285" style="stop-color:#FFCE00"/>
			</linearGradient>
			<path class="st8" d="M-856.24-1337.49c0,0.18,0.02,0.37-0.07,0.45c-0.28,11.55-0.47,23.02-0.37,34.57
				c0.07,11.55,0.17,22.93,0.26,34.29c11.75,459.18,255.47,860.5,618.5,1091.23C-31.58-45.95,213.13,30.11,475.89,30.09
				c143.66,0.13,282.13-22.83,411.69-64.83c297.51-96.63,549.23-294.88,713.73-553.98c-206.42,131.09-451.16,206.96-713.64,207.04
				c-262.65-0.08-507.47-76.04-713.81-207.04c-259.01-164.59-457.46-416.34-554.09-713.67c-41.93-129.82-64.77-268.01-64.66-411.86
				c-0.21-262.57,75.87-507.31,206.87-713.64c0-0.17,0-0.17,0-0.17C-7.2-2790.99,394.11-3034.72,853.1-3046.44
				C-82.54-3028.27-837.93-2273.22-856.24-1337.49z"/>
			
				<linearGradient id="SVGID_8_" gradientUnits="userSpaceOnUse" x1="2985.011" y1="1362.7498" x2="4045.5608" y2="-1551.0868" gradientTransform="matrix(0 1 -1 0 579.4503 -4454.0708)">
				<stop  offset="0" style="stop-color:#00BAD2"/>
				<stop  offset="0" style="stop-color:#01B5CE"/>
				<stop  offset="0.2" style="stop-color:#23BDC3"/>
				<stop  offset="0.75" style="stop-color:#242D69"/>
			</linearGradient>
			<path class="st9" d="M852.65,441.26c0.09,0.09,0.26,0.08,0.45,0.06c11.55,0.28,23.02,0.47,34.48,0.45
				c11.64,0.19,22.93-0.17,34.48-0.45c458.99-11.55,860.39-255.54,1090.93-618.37c131.2-206.36,207.18-450.99,207.07-713.84
				c0.08-143.65-22.74-282.04-64.85-411.49c-96.53-297.61-294.69-549.25-553.88-713.83c131.09,206.25,207.22,451.07,207.13,713.72
				c-0.08,262.65-76.04,507.31-207.15,713.75c-164.5,259.1-416.22,457.35-713.73,553.98C758.02,7.27,619.55,30.22,475.89,30.09
				C213.13,30.11-31.58-45.95-237.91-176.95l0,0C-600.94-407.69-844.67-809-856.41-1268.18
				C-838.04-332.18-83.08,422.96,852.65,441.26z"/>
		</g>
		
			<rect x="-220.1" y="-31.87" transform="matrix(-1 -7.015844e-12 7.015844e-12 -1 1877.9 336.1277)" class="st10" width="2318.1" height="399.87"/>
	</g>
</g>
<g id="Home_New" class="st0">
	<g id="Home_original_5_">
		<linearGradient id="SVGID_9_" gradientUnits="userSpaceOnUse" x1="343.6459" y1="102.5469" x2="789.5245" y2="264.8334">
			<stop  offset="0" style="stop-color:#2FB2BA"/>
			<stop  offset="1" style="stop-color:#2B90A5"/>
		</linearGradient>
		<path class="st11" d="M248.96,368h434.79c17.08-57.45,39.43-113.68,67.08-167.91C786.8,129.53,831.84,62.19,885.92,0H451.14
			C355.65,109.83,288.26,235.63,248.96,368z"/>
		<linearGradient id="SVGID_10_" gradientUnits="userSpaceOnUse" x1="-25.0021" y1="45.1049" x2="321.4808" y2="237.1635">
			<stop  offset="0" style="stop-color:#24BDC2"/>
			<stop  offset="1" style="stop-color:#2EA5B2"/>
		</linearGradient>
		<path class="st12" d="M450.47,0H0v368h248.96c39.3-132.37,106.69-258.17,202.19-368H450.47z"/>
		<path class="st3" d="M1800,0H885.92c-54.08,62.19-99.11,129.53-135.09,200.09c-27.64,54.23-50,110.46-67.07,167.91H1800V0z"/>
	</g>
	
		<linearGradient id="SVGID_11_" gradientUnits="userSpaceOnUse" x1="1657.8892" y1="-2816.6631" x2="64.2109" y2="-4153.918" gradientTransform="matrix(-1 0 0 -1 1800 -3354.2517)">
		<stop  offset="0.1363" style="stop-color:#242D69"/>
		<stop  offset="1" style="stop-color:#23BDC3"/>
	</linearGradient>
	<polygon class="st13" points="2098,-105.92 -220.1,-105.92 -220.1,368 2098,368 	"/>
	<g class="st14">
		
			<linearGradient id="SVGID_12_" gradientUnits="userSpaceOnUse" x1="720.3959" y1="-1322.3958" x2="2937.9482" y2="-3463.8611" gradientTransform="matrix(-0.7071 0.7071 -0.7071 -0.7071 994.2844 -4105.6841)">
			<stop  offset="0.7483" style="stop-color:#F36F25"/>
			<stop  offset="0.7917" style="stop-color:#F47722"/>
			<stop  offset="0.859" style="stop-color:#F78D19"/>
			<stop  offset="0.9413" style="stop-color:#FBB00C"/>
			<stop  offset="1" style="stop-color:#FFCE00"/>
		</linearGradient>
		<path class="st15" d="M2631.49-1295.71c0,0-0.02-0.19-0.02-0.37c0.11-11.38,0.56-22.93,0.45-34.48
			c-0.06-11.38-0.17-22.93-0.54-34.39c-11.72-458.99-255.56-860.37-618.36-1090.93c-206.44-131.12-451.27-207.07-713.66-207.24
			c-143.84,0.07-282.13,22.83-411.69,65.05c-297.5,96.42-549.33,294.77-713.83,553.88c206.45-131.11,451.18-206.99,713.75-207.16
			c262.74,0,507.39,75.96,713.75,207.16c259.1,164.5,457.35,416.22,553.88,713.83c42.12,129.45,64.94,267.84,64.85,411.49
			c0.11,262.85-75.87,507.47-207.07,713.84l0,0c-230.53,362.83-631.94,606.81-1090.93,618.37
			C1857.88,395.15,2612.92-359.73,2631.49-1295.71z"/>
		<path class="st7" d="M922.6-3046.29c-0.19,0.02-0.45-0.06-0.73-0.17c-11.27-0.18-22.82-0.28-34.2-0.35
			c-11.74,0.09-23.19,0.26-34.48,0.45c-459.08,11.63-860.39,255.36-1091.21,618.3c-131,206.5-206.98,451.14-206.87,713.81
			c-0.02,143.76,22.65,281.95,64.75,411.77c96.55,297.41,294.99,549.16,554,713.75C42.66-795.09-33.21-1039.99-33.21-1302.56
			s75.96-507.22,207.05-713.64c164.5-259.1,416.33-457.46,713.73-553.98c129.67-42.12,267.95-64.88,411.79-64.95
			c262.39,0.18,507.22,76.13,713.66,207.24l0,0c362.81,230.55,606.64,631.94,618.36,1090.93
			C2613.11-2272.68,1858.24-3027.9,922.6-3046.29z"/>
		
			<linearGradient id="SVGID_13_" gradientUnits="userSpaceOnUse" x1="2957.0107" y1="1362.7498" x2="4017.5605" y2="-1551.0868" gradientTransform="matrix(0 1 -1 0 579.4503 -4454.0708)">
			<stop  offset="0" style="stop-color:#00BAD2"/>
			<stop  offset="0" style="stop-color:#01B5CE"/>
			<stop  offset="0.2" style="stop-color:#23BDC3"/>
			<stop  offset="0.75" style="stop-color:#242D69"/>
		</linearGradient>
		<path class="st16" d="M852.65,413.26c0.09,0.09,0.26,0.08,0.45,0.06c11.55,0.28,23.02,0.47,34.48,0.45
			c11.64,0.19,22.93-0.17,34.48-0.45c458.99-11.55,860.39-255.54,1090.93-618.37c131.2-206.36,207.18-450.99,207.07-713.84
			c0.08-143.65-22.74-282.04-64.85-411.49c-96.53-297.61-294.69-549.25-553.88-713.83c131.09,206.25,207.22,451.07,207.13,713.72
			c-0.08,262.65-76.04,507.31-207.15,713.75c-164.5,259.1-416.22,457.35-713.73,553.98C758.02-20.73,619.55,2.22,475.89,2.09
			C213.13,2.11-31.58-73.95-237.91-204.95l0,0C-600.94-435.69-844.67-837-856.41-1296.18C-838.04-360.18-83.08,394.96,852.65,413.26
			z"/>
		
			<linearGradient id="SVGID_14_" gradientUnits="userSpaceOnUse" x1="-866.3116" y1="-2117.6729" x2="1415.7679" y2="-1715.2806" gradientTransform="matrix(1 0 0 -1 0 -3354.2517)">
			<stop  offset="0.3861" style="stop-color:#F36F25"/>
			<stop  offset="0.8285" style="stop-color:#FFCE00"/>
		</linearGradient>
		<path class="st17" d="M-856.24-1335.49c0,0.18,0.02,0.37-0.07,0.45c-0.28,11.55-0.47,23.02-0.37,34.57
			c0.07,11.55,0.17,22.93,0.26,34.29c11.75,459.18,255.47,860.5,618.5,1091.23C-31.58-43.95,213.13,32.11,475.89,32.09
			c143.66,0.13,282.13-22.83,411.69-64.83c297.51-96.63,549.23-294.88,713.73-553.98c-206.42,131.09-451.16,206.96-713.64,207.04
			c-262.65-0.08-507.47-76.04-713.81-207.04c-259.01-164.59-457.46-416.34-554.09-713.67c-41.93-129.82-64.77-268.01-64.66-411.86
			c-0.21-262.57,75.87-507.31,206.87-713.64c0-0.17,0-0.17,0-0.17C-7.2-2788.99,394.11-3032.72,853.1-3044.44
			C-82.54-3026.27-837.93-2271.22-856.24-1335.49z"/>
	</g>
	
		<rect x="-220.1" y="-31.87" transform="matrix(-1 -7.015844e-12 7.015844e-12 -1 1877.9 336.1277)" class="st18" width="2318.1" height="399.87"/>
	<rect x="-220.1" y="-307" class="st18" width="2318.1" height="675"/>
</g>
<g id="Knowledge_Center_2_" class="st0">
	<g id="Home_original_1_">
		<linearGradient id="SVGID_15_" gradientUnits="userSpaceOnUse" x1="343.6459" y1="102.5469" x2="789.5245" y2="264.8334">
			<stop  offset="0" style="stop-color:#2FB2BA"/>
			<stop  offset="1" style="stop-color:#2B90A5"/>
		</linearGradient>
		<path class="st19" d="M248.96,368h434.79c17.08-57.45,39.43-113.68,67.08-167.91C786.8,129.53,831.84,62.19,885.92,0H451.14
			C355.65,109.83,288.26,235.63,248.96,368z"/>
		<linearGradient id="SVGID_16_" gradientUnits="userSpaceOnUse" x1="-25.0021" y1="45.1049" x2="321.4808" y2="237.1635">
			<stop  offset="0" style="stop-color:#24BDC2"/>
			<stop  offset="1" style="stop-color:#2EA5B2"/>
		</linearGradient>
		<path class="st20" d="M450.47,0H0v368h248.96c39.3-132.37,106.69-258.17,202.19-368H450.47z"/>
		<path class="st3" d="M1800,0H885.92c-54.08,62.19-99.11,129.53-135.09,200.09c-27.64,54.23-50,110.46-67.07,167.91H1800V0z"/>
	</g>
	<g class="st14">
		<defs>
			<rect id="SVGID_17_" x="56" y="-274.17" width="2223" height="647.31"/>
		</defs>
		<clipPath id="SVGID_18_">
			<use xlink:href="#SVGID_17_"  style="overflow:visible;"/>
		</clipPath>
		
			<linearGradient id="SVGID_19_" gradientUnits="userSpaceOnUse" x1="1396.6488" y1="-2858.9509" x2="-131.6488" y2="-4141.3447" gradientTransform="matrix(-1 0 0 -1 1800 -3354.2517)">
			<stop  offset="0.1363" style="stop-color:#242D69"/>
			<stop  offset="1" style="stop-color:#00BAD2"/>
		</linearGradient>
		<polygon class="st21" points="2279,-81.34 56,-81.34 56,373.14 2279,373.14 		"/>
		<g class="st22">
			
				<linearGradient id="SVGID_20_" gradientUnits="userSpaceOnUse" x1="683.2334" y1="-1580.5443" x2="2809.8108" y2="-3634.1562" gradientTransform="matrix(-0.7071 0.7071 -0.7071 -0.7071 994.2844 -4105.6841)">
				<stop  offset="0.7483" style="stop-color:#00945E"/>
				<stop  offset="0.7723" style="stop-color:#08975D"/>
				<stop  offset="0.8096" style="stop-color:#1E9F5A"/>
				<stop  offset="0.8554" style="stop-color:#42AC56"/>
				<stop  offset="0.9081" style="stop-color:#73BE50"/>
				<stop  offset="0.9658" style="stop-color:#B2D549"/>
				<stop  offset="1" style="stop-color:#DBE444"/>
			</linearGradient>
			<path class="st23" d="M2790.6-1195.47c0,0-0.02-0.18-0.02-0.35c0.1-10.91,0.54-21.99,0.43-33.07
				c-0.06-10.91-0.17-21.99-0.52-32.98c-11.24-440.16-245.07-825.08-593-1046.17c-197.97-125.74-432.75-198.57-684.38-198.74
				c-137.94,0.06-270.55,21.89-394.8,62.38c-285.3,92.46-526.8,282.68-684.55,531.15c197.98-125.73,432.67-198.49,684.47-198.66
				c251.96,0,486.57,72.84,684.47,198.66c248.47,157.75,438.59,399.15,531.15,684.55c40.39,124.14,62.27,256.85,62.19,394.61
				c0.1,252.06-72.76,486.66-198.58,684.55l0,0c-221.08,347.94-606.01,581.92-1046.17,593
				C2048.73,426.02,2772.8-297.89,2790.6-1195.47z"/>
			<path class="st7" d="M1151.82-2901.09c-0.18,0.02-0.43-0.06-0.7-0.16c-10.81-0.17-21.88-0.27-32.8-0.33
				c-11.26,0.08-22.24,0.24-33.07,0.44c-440.24,11.16-825.09,244.89-1046.44,592.94c-125.63,198.03-198.49,432.63-198.39,684.53
				c-0.02,137.86,21.72,270.38,62.09,394.88C-4.9-943.59,185.4-702.17,433.79-544.34c-125.81-197.9-198.57-432.75-198.57-684.55
				c0-251.8,72.84-486.41,198.55-684.36c157.75-248.47,399.25-438.69,684.45-531.26c124.35-40.39,256.96-62.22,394.9-62.28
				c251.63,0.17,486.41,73,684.38,198.74l0,0c347.92,221.1,581.75,606.01,593,1046.17
				C2772.98-2159.21,2049.08-2883.45,1151.82-2901.09z"/>
			
				<linearGradient id="SVGID_21_" gradientUnits="userSpaceOnUse" x1="-563.7009" y1="-2186.719" x2="1624.7565" y2="-1800.8348" gradientTransform="matrix(1 0 0 -1 0 -3354.2517)">
				<stop  offset="0.3861" style="stop-color:#00945E"/>
				<stop  offset="0.8285" style="stop-color:#DBE444"/>
			</linearGradient>
			<path class="st24" d="M-554.04-1262.39c0,0.17,0.02,0.35-0.06,0.44c-0.27,11.08-0.45,22.07-0.35,33.15
				c0.06,11.07,0.16,21.99,0.25,32.88c11.26,440.34,244.99,825.2,593.12,1046.46C236.79-23.83,471.46,49.11,723.44,49.09
				c137.76,0.13,270.55-21.89,394.8-62.17c285.3-92.67,526.7-282.78,684.45-531.26c-197.95,125.71-432.65,198.47-684.37,198.55
				c-251.88-0.08-486.65-72.92-684.53-198.55C185.4-702.17-4.9-943.59-97.56-1228.72c-40.21-124.49-62.12-257.02-62.01-394.96
				c-0.2-251.8,72.76-486.49,198.39-684.37c0-0.16,0-0.16,0-0.16c221.35-348.05,606.2-581.78,1046.36-593.02
				C187.92-2883.8-536.49-2159.72-554.04-1262.39z"/>
			
				<linearGradient id="SVGID_22_" gradientUnits="userSpaceOnUse" x1="3065.5144" y1="1063.5422" x2="4082.5552" y2="-1730.7543" gradientTransform="matrix(0 1 -1 0 579.4503 -4454.0708)">
				<stop  offset="0" style="stop-color:#00BAD2"/>
				<stop  offset="0" style="stop-color:#01B5CE"/>
				<stop  offset="0.2" style="stop-color:#02B2CC"/>
				<stop  offset="0.75" style="stop-color:#242D69"/>
			</linearGradient>
			<path class="st25" d="M1084.74,443.39c0.08,0.08,0.25,0.08,0.43,0.06c11.08,0.27,22.07,0.45,33.07,0.43
				c11.16,0.19,21.99-0.16,33.07-0.43c440.16-11.08,825.1-245.05,1046.17-593c125.82-197.89,198.68-432.49,198.58-684.55
				c0.08-137.76-21.8-270.47-62.19-394.61c-92.57-285.4-282.6-526.72-531.15-684.55c125.71,197.79,198.72,432.57,198.63,684.44
				c-0.08,251.88-72.92,486.49-198.65,684.47c-157.75,248.47-399.15,438.59-684.45,531.26C993.99,27.2,861.2,49.22,723.44,49.09
				C471.46,49.11,236.79-23.83,38.92-149.46l0,0c-348.14-221.27-581.86-606.12-593.12-1046.46
				C-536.59-298.32,187.4,425.84,1084.74,443.39z"/>
		</g>
		
			<rect x="56" y="-10.33" transform="matrix(-1 -7.015400e-12 7.015400e-12 -1 2335 362.8048)" class="st26" width="2223" height="383.47"/>
	</g>
</g>
<g id="Who_We_Serve_1_" class="st0">
	<g id="Home_original_2_">
		<linearGradient id="SVGID_23_" gradientUnits="userSpaceOnUse" x1="343.6459" y1="102.5469" x2="789.5245" y2="264.8334">
			<stop  offset="0" style="stop-color:#2FB2BA"/>
			<stop  offset="1" style="stop-color:#2B90A5"/>
		</linearGradient>
		<path class="st27" d="M248.96,368h434.79c17.08-57.45,39.43-113.68,67.08-167.91C786.8,129.53,831.84,62.19,885.92,0H451.14
			C355.65,109.83,288.26,235.63,248.96,368z"/>
		<linearGradient id="SVGID_24_" gradientUnits="userSpaceOnUse" x1="-25.0021" y1="45.1049" x2="321.4808" y2="237.1635">
			<stop  offset="0" style="stop-color:#24BDC2"/>
			<stop  offset="1" style="stop-color:#2EA5B2"/>
		</linearGradient>
		<path class="st28" d="M450.47,0H0v368h248.96c39.3-132.37,106.69-258.17,202.19-368H450.47z"/>
		<path class="st3" d="M1800,0H885.92c-54.08,62.19-99.11,129.53-135.09,200.09c-27.64,54.23-50,110.46-67.07,167.91H1800V0z"/>
	</g>
	<g class="st14">
		<defs>
			<rect id="SVGID_25_" x="-220.1" y="-307" width="2318.1" height="675"/>
		</defs>
		<clipPath id="SVGID_26_">
			<use xlink:href="#SVGID_25_"  style="overflow:visible;"/>
		</clipPath>
		
			<linearGradient id="SVGID_27_" gradientUnits="userSpaceOnUse" x1="1657.8892" y1="-2816.6631" x2="64.2109" y2="-4153.918" gradientTransform="matrix(-1 0 0 -1 1800 -3354.2517)">
			<stop  offset="0.1363" style="stop-color:#00945E"/>
			<stop  offset="1" style="stop-color:#DBE444"/>
		</linearGradient>
		<polygon class="st29" points="2098,-105.92 -220.1,-105.92 -220.1,368 2098,368 		"/>
		<g class="st30">
			
				<linearGradient id="SVGID_28_" gradientUnits="userSpaceOnUse" x1="740.1948" y1="-1342.1947" x2="2957.7473" y2="-3483.6602" gradientTransform="matrix(-0.7071 0.7071 -0.7071 -0.7071 994.2844 -4105.6841)">
				<stop  offset="0.7787" style="stop-color:#23BDC3"/>
				<stop  offset="0.8115" style="stop-color:#23A0B1"/>
				<stop  offset="0.8733" style="stop-color:#236F92"/>
				<stop  offset="0.9275" style="stop-color:#234B7C"/>
				<stop  offset="0.9716" style="stop-color:#23356E"/>
				<stop  offset="1" style="stop-color:#232D69"/>
			</linearGradient>
			<path class="st31" d="M2631.49-1267.71c0,0-0.02-0.19-0.02-0.37c0.11-11.38,0.56-22.93,0.45-34.48
				c-0.06-11.38-0.17-22.93-0.54-34.39c-11.72-458.99-255.56-860.37-618.36-1090.93c-206.44-131.12-451.27-207.07-713.66-207.24
				c-143.84,0.07-282.13,22.83-411.69,65.05c-297.5,96.42-549.33,294.77-713.83,553.88c206.45-131.11,451.18-206.99,713.75-207.16
				c262.74,0,507.39,75.96,713.75,207.16c259.1,164.5,457.35,416.22,553.88,713.83c42.12,129.45,64.94,267.84,64.85,411.49
				c0.11,262.85-75.87,507.47-207.07,713.84l0,0c-230.53,362.83-631.94,606.81-1090.93,618.37
				C1857.88,423.15,2612.92-331.73,2631.49-1267.71z"/>
			<path class="st7" d="M922.6-3046.29c-0.19,0.02-0.45-0.06-0.73-0.17c-11.27-0.18-22.82-0.28-34.2-0.35
				c-11.74,0.09-23.19,0.26-34.48,0.45c-459.08,11.63-860.39,255.36-1091.21,618.3c-131,206.5-206.98,451.14-206.87,713.81
				c-0.02,143.76,22.65,281.95,64.75,411.77c96.55,297.41,294.99,549.16,554,713.75C42.66-795.09-33.21-1039.99-33.21-1302.56
				s75.96-507.22,207.05-713.64c164.5-259.1,416.33-457.46,713.73-553.98c129.67-42.12,267.95-64.88,411.79-64.95
				c262.39,0.18,507.22,76.13,713.66,207.24l0,0c362.81,230.55,606.64,631.94,618.36,1090.93
				C2613.11-2272.68,1858.24-3027.9,922.6-3046.29z"/>
			
				<linearGradient id="SVGID_29_" gradientUnits="userSpaceOnUse" x1="-866.3116" y1="-2115.6729" x2="1415.7679" y2="-1713.2806" gradientTransform="matrix(1 0 0 -1 0 -3354.2517)">
				<stop  offset="0.3861" style="stop-color:#232D69"/>
				<stop  offset="0.8285" style="stop-color:#23BDC3"/>
			</linearGradient>
			<path class="st32" d="M-856.24-1337.49c0,0.18,0.02,0.37-0.07,0.45c-0.28,11.55-0.47,23.02-0.37,34.57
				c0.07,11.55,0.17,22.93,0.26,34.29c11.75,459.18,255.47,860.5,618.5,1091.23C-31.58-45.95,213.13,30.11,475.89,30.09
				c143.66,0.13,282.13-22.83,411.69-64.83c297.51-96.63,549.23-294.88,713.73-553.98c-206.42,131.09-451.16,206.96-713.64,207.04
				c-262.65-0.08-507.47-76.04-713.81-207.04c-259.01-164.59-457.46-416.34-554.09-713.67c-41.93-129.82-64.77-268.01-64.66-411.86
				c-0.21-262.57,75.87-507.31,206.87-713.64c0-0.17,0-0.17,0-0.17C-7.2-2790.99,394.11-3034.72,853.1-3046.44
				C-82.54-3028.27-837.93-2273.22-856.24-1337.49z"/>
			
				<linearGradient id="SVGID_30_" gradientUnits="userSpaceOnUse" x1="2985.011" y1="1362.7498" x2="4045.5608" y2="-1551.0867" gradientTransform="matrix(0 1 -1 0 579.4503 -4454.0708)">
				<stop  offset="0" style="stop-color:#DBE444"/>
				<stop  offset="0.4453" style="stop-color:#DBE444"/>
				<stop  offset="0.75" style="stop-color:#00945E"/>
			</linearGradient>
			<path class="st33" d="M852.65,441.26c0.09,0.09,0.26,0.08,0.45,0.06c11.55,0.28,23.02,0.47,34.48,0.45
				c11.64,0.19,22.93-0.17,34.48-0.45c458.99-11.55,860.39-255.54,1090.93-618.37c131.2-206.36,207.18-450.99,207.07-713.84
				c0.08-143.65-22.74-282.04-64.85-411.49c-96.53-297.61-294.69-549.25-553.88-713.83c131.09,206.25,207.22,451.07,207.13,713.72
				c-0.08,262.65-76.04,507.31-207.15,713.75c-164.5,259.1-416.22,457.35-713.73,553.98C758.02,7.27,619.55,30.22,475.89,30.09
				C213.13,30.11-31.58-45.95-237.91-176.95l0,0C-600.94-407.69-844.67-809-856.41-1268.18
				C-838.04-332.18-83.08,422.96,852.65,441.26z"/>
		</g>
		
			<rect x="-220.1" y="-31.87" transform="matrix(-1 -7.015844e-12 7.015844e-12 -1 1877.9 336.1277)" class="st34" width="2318.1" height="399.87"/>
	</g>
</g>
<g id="Our_Solutions" class="st0">
	<g id="Home_original_4_">
		<linearGradient id="SVGID_31_" gradientUnits="userSpaceOnUse" x1="343.6459" y1="102.5469" x2="789.5245" y2="264.8334">
			<stop  offset="0" style="stop-color:#2FB2BA"/>
			<stop  offset="1" style="stop-color:#2B90A5"/>
		</linearGradient>
		<path class="st35" d="M248.96,368h434.79c17.08-57.45,39.43-113.68,67.08-167.91C786.8,129.53,831.84,62.19,885.92,0H451.14
			C355.65,109.83,288.26,235.63,248.96,368z"/>
		<linearGradient id="SVGID_32_" gradientUnits="userSpaceOnUse" x1="-25.0021" y1="45.1049" x2="321.4808" y2="237.1635">
			<stop  offset="0" style="stop-color:#24BDC2"/>
			<stop  offset="1" style="stop-color:#2EA5B2"/>
		</linearGradient>
		<path class="st36" d="M450.47,0H0v368h248.96c39.3-132.37,106.69-258.17,202.19-368H450.47z"/>
		<path class="st3" d="M1800,0H885.92c-54.08,62.19-99.11,129.53-135.09,200.09c-27.64,54.23-50,110.46-67.07,167.91H1800V0z"/>
	</g>
	<g class="st14">
		<defs>
			<rect id="SVGID_33_" x="-315.2" y="-307" width="2318.1" height="675"/>
		</defs>
		<clipPath id="SVGID_34_">
			<use xlink:href="#SVGID_33_"  style="overflow:visible;"/>
		</clipPath>
		
			<linearGradient id="SVGID_35_" gradientUnits="userSpaceOnUse" x1="1752.9891" y1="-2816.6631" x2="159.3109" y2="-4153.918" gradientTransform="matrix(-1 0 0 -1 1800 -3354.2517)">
			<stop  offset="0.1363" style="stop-color:#242D69"/>
			<stop  offset="1" style="stop-color:#00BAD2"/>
		</linearGradient>
		<polygon class="st37" points="2002.9,-105.92 -315.2,-105.92 -315.2,368 2002.9,368 		"/>
		<g class="st38">
			
				<linearGradient id="SVGID_36_" gradientUnits="userSpaceOnUse" x1="807.4407" y1="-1274.9489" x2="3024.9932" y2="-3416.4143" gradientTransform="matrix(-0.7071 0.7071 -0.7071 -0.7071 994.2844 -4105.6841)">
				<stop  offset="0.7483" style="stop-color:#CB003D"/>
				<stop  offset="0.7725" style="stop-color:#CD083B"/>
				<stop  offset="0.8102" style="stop-color:#D31E34"/>
				<stop  offset="0.8565" style="stop-color:#DC422A"/>
				<stop  offset="0.9097" style="stop-color:#E9731B"/>
				<stop  offset="0.968" style="stop-color:#F9B209"/>
				<stop  offset="0.9859" style="stop-color:#FEC703"/>
				<stop  offset="1" style="stop-color:#FFCE00"/>
			</linearGradient>
			<path class="st39" d="M2536.39-1267.71c0,0-0.02-0.19-0.02-0.37c0.11-11.38,0.56-22.93,0.45-34.48
				c-0.06-11.38-0.17-22.93-0.54-34.39c-11.72-458.99-255.56-860.37-618.36-1090.93c-206.44-131.12-451.27-207.07-713.66-207.24
				c-143.84,0.07-282.13,22.83-411.69,65.05c-297.5,96.42-549.33,294.77-713.83,553.88c206.45-131.11,451.18-206.99,713.75-207.16
				c262.74,0,507.39,75.96,713.75,207.16c259.1,164.5,457.35,416.22,553.88,713.83c42.12,129.45,64.94,267.84,64.85,411.49
				c0.11,262.85-75.87,507.47-207.07,713.84l0,0c-230.53,362.83-631.94,606.81-1090.93,618.37
				C1762.78,423.15,2517.82-331.73,2536.39-1267.71z"/>
			<path class="st7" d="M827.5-3046.29c-0.19,0.02-0.45-0.06-0.73-0.17c-11.27-0.18-22.82-0.28-34.2-0.35
				c-11.74,0.09-23.19,0.26-34.48,0.45c-459.08,11.63-860.39,255.36-1091.21,618.3c-131,206.5-206.98,451.14-206.87,713.81
				c-0.02,143.76,22.65,281.95,64.75,411.77c96.55,297.41,294.99,549.16,554,713.75c-131.2-206.36-207.07-451.27-207.07-713.84
				c0-262.57,75.96-507.22,207.05-713.64c164.5-259.1,416.33-457.46,713.73-553.98c129.67-42.12,267.95-64.88,411.79-64.95
				c262.39,0.18,507.22,76.13,713.66,207.24l0,0c362.81,230.55,606.64,631.94,618.36,1090.93
				C2518.01-2272.68,1763.14-3027.9,827.5-3046.29z"/>
			
				<linearGradient id="SVGID_37_" gradientUnits="userSpaceOnUse" x1="-961.4116" y1="-2115.6729" x2="1320.668" y2="-1713.2806" gradientTransform="matrix(1 0 0 -1 0 -3354.2517)">
				<stop  offset="0.3861" style="stop-color:#CB003D"/>
				<stop  offset="0.8285" style="stop-color:#FFCE00"/>
			</linearGradient>
			<path class="st40" d="M-951.34-1337.49c0,0.18,0.02,0.37-0.07,0.45c-0.28,11.55-0.47,23.02-0.37,34.57
				c0.07,11.55,0.17,22.93,0.26,34.29c11.75,459.18,255.47,860.5,618.5,1091.23C-126.68-45.95,118.03,30.11,380.79,30.09
				c143.66,0.13,282.13-22.83,411.69-64.83c297.51-96.63,549.23-294.88,713.73-553.98c-206.42,131.09-451.16,206.96-713.64,207.04
				c-262.65-0.08-507.47-76.04-713.81-207.04c-259.01-164.59-457.46-416.34-554.09-713.67c-41.93-129.82-64.77-268.01-64.66-411.86
				c-0.21-262.57,75.87-507.31,206.87-713.64c0-0.17,0-0.17,0-0.17C-102.3-2790.99,299.01-3034.72,758-3046.44
				C-177.64-3028.27-933.03-2273.22-951.34-1337.49z"/>
			
				<linearGradient id="SVGID_38_" gradientUnits="userSpaceOnUse" x1="2985.011" y1="1457.8507" x2="4045.5608" y2="-1455.9858" gradientTransform="matrix(0 1 -1 0 579.4503 -4454.0708)">
				<stop  offset="0" style="stop-color:#01B5CE"/>
				<stop  offset="0.2" style="stop-color:#00BAD2"/>
				<stop  offset="0.75" style="stop-color:#242D69"/>
			</linearGradient>
			<path class="st41" d="M757.55,441.26c0.09,0.09,0.26,0.08,0.45,0.06c11.55,0.28,23.02,0.47,34.48,0.45
				c11.64,0.19,22.93-0.17,34.48-0.45c458.99-11.55,860.39-255.54,1090.93-618.37c131.2-206.36,207.18-450.99,207.07-713.84
				c0.08-143.65-22.74-282.04-64.85-411.49c-96.53-297.61-294.69-549.25-553.88-713.83c131.09,206.25,207.22,451.07,207.13,713.72
				c-0.08,262.65-76.04,507.31-207.15,713.75c-164.5,259.1-416.22,457.35-713.73,553.98C662.92,7.27,524.45,30.22,380.79,30.09
				c-262.76,0.02-507.47-76.04-713.81-207.05l0,0C-696.04-407.69-939.77-809-951.51-1268.18
				C-933.14-332.18-178.18,422.96,757.55,441.26z"/>
		</g>
		
			<rect x="-315.2" y="-31.87" transform="matrix(-1 -7.015844e-12 7.015844e-12 -1 1687.7001 336.1277)" class="st42" width="2318.1" height="399.87"/>
	</g>
</g>
<g id="About_Us" class="st0">
	<g id="Home_original_3_">
		<linearGradient id="SVGID_39_" gradientUnits="userSpaceOnUse" x1="343.6459" y1="102.5469" x2="789.5245" y2="264.8334">
			<stop  offset="0" style="stop-color:#2FB2BA"/>
			<stop  offset="1" style="stop-color:#2B90A5"/>
		</linearGradient>
		<path class="st43" d="M248.96,368h434.79c17.08-57.45,39.43-113.68,67.08-167.91C786.8,129.53,831.84,62.19,885.92,0H451.14
			C355.65,109.83,288.26,235.63,248.96,368z"/>
		<linearGradient id="SVGID_40_" gradientUnits="userSpaceOnUse" x1="-25.0021" y1="45.1049" x2="321.4808" y2="237.1635">
			<stop  offset="0" style="stop-color:#24BDC2"/>
			<stop  offset="1" style="stop-color:#2EA5B2"/>
		</linearGradient>
		<path class="st44" d="M450.47,0H0v368h248.96c39.3-132.37,106.69-258.17,202.19-368H450.47z"/>
		<path class="st3" d="M1800,0H885.92c-54.08,62.19-99.11,129.53-135.09,200.09c-27.64,54.23-50,110.46-67.07,167.91H1800V0z"/>
	</g>
	<g class="st14">
		<defs>
			<rect id="SVGID_41_" x="-220.1" y="-307" width="2318.1" height="675"/>
		</defs>
		<clipPath id="SVGID_42_">
			<use xlink:href="#SVGID_41_"  style="overflow:visible;"/>
		</clipPath>
		
			<linearGradient id="SVGID_43_" gradientUnits="userSpaceOnUse" x1="1657.8892" y1="-2816.6631" x2="64.2109" y2="-4153.918" gradientTransform="matrix(-1 0 0 -1 1800 -3354.2517)">
			<stop  offset="0.1375" style="stop-color:#F36F25"/>
			<stop  offset="1" style="stop-color:#FFCE00"/>
		</linearGradient>
		<polygon class="st45" points="2098,-105.92 -220.1,-105.92 -220.1,368 2098,368 		"/>
		<g class="st46">
			
				<linearGradient id="SVGID_44_" gradientUnits="userSpaceOnUse" x1="740.1948" y1="-1342.1947" x2="2957.7473" y2="-3483.6602" gradientTransform="matrix(-0.7071 0.7071 -0.7071 -0.7071 994.2844 -4105.6841)">
				<stop  offset="0.7787" style="stop-color:#23BDC3"/>
				<stop  offset="0.8115" style="stop-color:#23A0B1"/>
				<stop  offset="0.8733" style="stop-color:#236F92"/>
				<stop  offset="0.9275" style="stop-color:#234B7C"/>
				<stop  offset="0.9716" style="stop-color:#23356E"/>
				<stop  offset="1" style="stop-color:#232D69"/>
			</linearGradient>
			<path class="st47" d="M2631.49-1267.71c0,0-0.02-0.19-0.02-0.37c0.11-11.38,0.56-22.93,0.45-34.48
				c-0.06-11.38-0.17-22.93-0.54-34.39c-11.72-458.99-255.56-860.37-618.36-1090.93c-206.44-131.12-451.27-207.07-713.66-207.24
				c-143.84,0.07-282.13,22.83-411.69,65.05c-297.5,96.42-549.33,294.77-713.83,553.88c206.45-131.11,451.18-206.99,713.75-207.16
				c262.74,0,507.39,75.96,713.75,207.16c259.1,164.5,457.35,416.22,553.88,713.83c42.12,129.45,64.94,267.84,64.85,411.49
				c0.11,262.85-75.87,507.47-207.07,713.84l0,0c-230.53,362.83-631.94,606.81-1090.93,618.37
				C1857.88,423.15,2612.92-331.73,2631.49-1267.71z"/>
			<path class="st7" d="M922.6-3046.29c-0.19,0.02-0.45-0.06-0.73-0.17c-11.27-0.18-22.82-0.28-34.2-0.35
				c-11.74,0.09-23.19,0.26-34.48,0.45c-459.08,11.63-860.39,255.36-1091.21,618.3c-131,206.5-206.98,451.14-206.87,713.81
				c-0.02,143.76,22.65,281.95,64.75,411.77c96.55,297.41,294.99,549.16,554,713.75C42.66-795.09-33.21-1039.99-33.21-1302.56
				s75.96-507.22,207.05-713.64c164.5-259.1,416.33-457.46,713.73-553.98c129.67-42.12,267.95-64.88,411.79-64.95
				c262.39,0.18,507.22,76.13,713.66,207.24l0,0c362.81,230.55,606.64,631.94,618.36,1090.93
				C2613.11-2272.68,1858.24-3027.9,922.6-3046.29z"/>
			
				<linearGradient id="SVGID_45_" gradientUnits="userSpaceOnUse" x1="-866.3116" y1="-2115.6729" x2="1415.7679" y2="-1713.2806" gradientTransform="matrix(1 0 0 -1 0 -3354.2517)">
				<stop  offset="0.3861" style="stop-color:#232D69"/>
				<stop  offset="0.8285" style="stop-color:#23BDC3"/>
			</linearGradient>
			<path class="st48" d="M-856.24-1337.49c0,0.18,0.02,0.37-0.07,0.45c-0.28,11.55-0.47,23.02-0.37,34.57
				c0.07,11.55,0.17,22.93,0.26,34.29c11.75,459.18,255.47,860.5,618.5,1091.23C-31.58-45.95,213.13,30.11,475.89,30.09
				c143.66,0.13,282.13-22.83,411.69-64.83c297.51-96.63,549.23-294.88,713.73-553.98c-206.42,131.09-451.16,206.96-713.64,207.04
				c-262.65-0.08-507.47-76.04-713.81-207.04c-259.01-164.59-457.46-416.34-554.09-713.67c-41.93-129.82-64.77-268.01-64.66-411.86
				c-0.21-262.57,75.87-507.31,206.87-713.64c0-0.17,0-0.17,0-0.17C-7.2-2790.99,394.11-3034.72,853.1-3046.44
				C-82.54-3028.27-837.93-2273.22-856.24-1337.49z"/>
			
				<linearGradient id="SVGID_46_" gradientUnits="userSpaceOnUse" x1="2985.011" y1="1362.7498" x2="4045.5608" y2="-1551.0868" gradientTransform="matrix(0 1 -1 0 579.4503 -4454.0708)">
				<stop  offset="0" style="stop-color:#FFCE00"/>
				<stop  offset="0.4453" style="stop-color:#FFCE00"/>
				<stop  offset="0.75" style="stop-color:#F36F25"/>
			</linearGradient>
			<path class="st49" d="M852.65,441.26c0.09,0.09,0.26,0.08,0.45,0.06c11.55,0.28,23.02,0.47,34.48,0.45
				c11.64,0.19,22.93-0.17,34.48-0.45c458.99-11.55,860.39-255.54,1090.93-618.37c131.2-206.36,207.18-450.99,207.07-713.84
				c0.08-143.65-22.74-282.04-64.85-411.49c-96.53-297.61-294.69-549.25-553.88-713.83c131.09,206.25,207.22,451.07,207.13,713.72
				c-0.08,262.65-76.04,507.31-207.15,713.75c-164.5,259.1-416.22,457.35-713.73,553.98C758.02,7.27,619.55,30.22,475.89,30.09
				C213.13,30.11-31.58-45.95-237.91-176.95l0,0C-600.94-407.69-844.67-809-856.41-1268.18
				C-838.04-332.18-83.08,422.96,852.65,441.26z"/>
		</g>
		
			<rect x="-220.1" y="-31.87" transform="matrix(-1 -7.015844e-12 7.015844e-12 -1 1877.9 336.1277)" class="st50" width="2318.1" height="399.87"/>
	</g>
</g>
</svg>
